<svg id="svg" version="1.1" xmlns="http://www.w3.org/2000/svg" xmlns:xlink="http://www.w3.org/1999/xlink" width="400" height="352.86195286195283" viewBox="0, 0, 400,352.86195286195283"><g id="svgg"><path id="path0" d="M229.479 48.518 C 229.479 48.845,229.781 49.073,230.215 49.073 C 231.075 49.073,230.954 48.248,230.068 48.076 C 229.719 48.009,229.479 48.189,229.479 48.518 M298.323 78.170 C 298.323 78.477,298.575 78.729,298.882 78.729 C 299.505 78.729,299.397 77.969,298.742 77.751 C 298.512 77.674,298.323 77.863,298.323 78.170 M317.034 97.264 C 317.034 97.555,317.273 97.793,317.564 97.793 C 317.855 97.793,318.094 97.555,318.094 97.264 C 318.094 96.973,317.855 96.734,317.564 96.734 C 317.273 96.734,317.034 96.973,317.034 97.264 M228.420 105.057 C 228.420 105.753,229.530 105.587,229.772 104.854 C 229.928 104.384,229.874 104.384,229.292 104.854 C 228.915 105.159,228.750 105.197,228.903 104.943 C 229.049 104.700,229.000 104.501,228.794 104.501 C 228.588 104.501,228.420 104.751,228.420 105.057 M234.775 106.255 C 234.775 106.444,234.511 106.496,234.187 106.372 C 233.792 106.220,233.684 106.282,233.855 106.560 C 234.222 107.152,235.128 107.069,235.128 106.443 C 235.128 106.152,235.049 105.914,234.951 105.914 C 234.854 105.914,234.775 106.067,234.775 106.255 M252.861 114.100 C 253.079 114.754,253.839 114.863,253.839 114.239 C 253.839 113.932,253.588 113.680,253.280 113.680 C 252.973 113.680,252.784 113.869,252.861 114.100 M149.113 121.271 C 148.998 121.569,148.473 121.801,147.910 121.801 C 146.253 121.801,143.750 123.548,143.485 124.890 C 143.360 125.521,143.061 126.037,142.821 126.037 C 142.120 126.037,142.123 125.747,142.112 185.878 C 142.101 242.521,142.144 245.631,142.938 245.455 C 143.157 245.406,143.336 245.699,143.336 246.105 C 143.336 246.536,143.618 246.918,144.010 247.021 C 144.380 247.118,144.762 247.500,144.859 247.870 C 144.990 248.368,145.352 248.544,146.250 248.544 C 147.159 248.544,147.552 248.738,147.809 249.315 C 148.116 250.002,148.179 250.020,148.389 249.473 C 148.529 249.108,148.483 248.947,148.275 249.076 C 148.083 249.194,147.926 249.110,147.926 248.888 C 147.926 248.666,148.124 248.555,148.367 248.641 C 148.610 248.726,148.786 249.057,148.759 249.376 C 148.714 249.910,151.540 249.956,184.723 249.956 C 220.562 249.956,220.735 249.952,220.551 249.250 C 220.375 248.576,220.540 248.544,224.217 248.544 C 227.803 248.544,228.067 248.496,228.067 247.853 C 228.067 247.241,228.357 247.151,230.627 247.059 C 232.806 246.970,233.179 246.864,233.138 246.341 C 233.111 246.003,233.228 245.812,233.397 245.917 C 233.961 246.265,236.187 245.654,236.187 245.150 C 236.187 244.817,236.622 244.660,237.545 244.660 C 238.454 244.660,239.113 244.427,239.541 243.954 C 239.892 243.566,240.473 243.248,240.831 243.248 C 241.190 243.248,241.801 242.930,242.189 242.542 C 242.577 242.154,243.213 241.836,243.601 241.836 C 244.072 241.836,244.307 241.600,244.307 241.130 C 244.307 240.555,244.543 240.424,245.576 240.424 C 246.548 240.424,246.888 240.258,247.029 239.718 C 247.131 239.327,247.511 239.011,247.879 239.011 C 248.244 239.011,248.544 238.808,248.544 238.559 C 248.544 238.311,248.981 237.910,249.515 237.670 C 251.519 236.766,252.427 236.133,252.427 235.638 C 252.427 235.358,252.745 235.128,253.133 235.128 C 253.604 235.128,253.839 234.893,253.839 234.422 C 253.839 233.951,254.075 233.716,254.545 233.716 C 255.016 233.716,255.252 233.480,255.252 233.010 C 255.252 232.539,255.487 232.304,255.958 232.304 C 256.346 232.304,256.664 232.082,256.664 231.812 C 256.664 231.541,256.902 231.229,257.193 231.117 C 257.485 231.005,257.723 230.670,257.723 230.373 C 257.723 230.068,258.030 229.832,258.429 229.832 C 258.885 229.832,259.135 229.597,259.135 229.167 C 259.135 228.802,259.436 228.424,259.804 228.328 C 260.199 228.224,260.571 227.703,260.714 227.051 C 260.847 226.445,261.098 225.949,261.270 225.949 C 261.443 225.949,261.495 226.227,261.385 226.567 C 261.218 227.088,261.246 227.102,261.568 226.655 C 261.777 226.364,261.951 225.688,261.954 225.154 C 261.958 224.421,262.132 224.184,262.665 224.184 C 263.054 224.184,263.372 224.025,263.372 223.831 C 263.372 223.636,263.689 223.160,264.078 222.771 C 264.466 222.383,264.784 221.668,264.784 221.183 C 264.784 220.634,264.984 220.300,265.313 220.300 C 265.605 220.300,265.843 220.001,265.843 219.635 C 265.843 219.267,266.158 218.888,266.549 218.786 C 267.090 218.644,267.255 218.304,267.255 217.332 C 267.255 216.299,267.386 216.064,267.961 216.064 C 268.528 216.064,268.667 215.828,268.667 214.869 C 268.667 213.971,268.843 213.629,269.373 213.490 C 269.929 213.345,270.079 213.008,270.079 211.915 C 270.079 210.973,270.307 210.318,270.786 209.885 C 271.226 209.487,271.492 208.798,271.492 208.054 C 271.492 207.320,271.695 206.784,272.021 206.659 C 272.397 206.515,272.551 205.928,272.551 204.637 C 272.551 203.235,272.704 202.722,273.219 202.400 C 273.786 202.047,273.893 201.514,273.930 198.884 C 273.963 196.545,274.102 195.713,274.498 195.492 C 274.786 195.331,275.022 195.028,275.022 194.820 C 275.022 194.577,274.832 194.599,274.492 194.881 C 274.059 195.241,273.963 195.217,273.963 194.748 C 273.963 194.410,274.253 194.175,274.669 194.175 C 275.357 194.175,275.375 193.939,275.375 185.024 C 275.375 175.620,275.298 174.757,274.455 174.757 C 274.071 174.757,273.963 174.064,273.963 171.604 C 273.963 168.760,273.894 168.428,273.257 168.226 C 272.738 168.061,272.551 167.692,272.551 166.833 C 272.551 166.190,272.312 165.467,272.021 165.225 C 271.730 164.983,271.497 164.606,271.503 164.387 C 271.509 164.169,271.747 164.298,272.032 164.675 C 272.317 165.052,272.551 165.182,272.551 164.965 C 272.551 164.747,272.312 164.331,272.021 164.040 C 271.730 163.749,271.492 163.044,271.492 162.474 C 271.492 161.903,271.174 161.033,270.786 160.539 C 270.397 160.045,270.079 159.230,270.079 158.726 C 270.079 158.223,269.911 157.811,269.706 157.811 C 269.500 157.811,269.430 157.652,269.550 157.458 C 269.670 157.264,269.520 157.105,269.218 157.105 C 268.821 157.105,268.667 156.750,268.667 155.836 C 268.667 154.865,268.502 154.524,267.961 154.383 C 267.573 154.281,267.255 153.919,267.255 153.577 C 267.255 153.235,266.986 152.737,266.658 152.470 C 266.143 152.053,266.102 152.059,266.361 152.515 C 266.541 152.831,266.532 152.926,266.341 152.751 C 266.006 152.445,265.960 152.277,265.887 151.103 C 265.863 150.715,265.605 150.397,265.313 150.397 C 265.019 150.397,264.784 150.083,264.784 149.691 C 264.784 149.303,264.616 148.985,264.410 148.985 C 264.204 148.985,264.149 148.802,264.287 148.578 C 264.426 148.355,264.306 147.997,264.021 147.784 C 263.737 147.571,263.400 147.118,263.273 146.778 C 263.145 146.439,262.797 146.161,262.500 146.161 C 262.195 146.161,261.959 145.853,261.959 145.455 C 261.959 144.984,261.724 144.748,261.253 144.748 C 260.699 144.748,260.547 144.513,260.547 143.656 C 260.547 142.861,260.355 142.514,259.841 142.379 C 259.453 142.278,259.135 141.960,259.135 141.673 C 259.135 141.387,258.817 141.069,258.429 140.967 C 258.041 140.866,257.723 140.628,257.723 140.439 C 257.723 140.085,254.671 136.981,254.323 136.981 C 254.215 136.981,253.723 136.664,253.230 136.275 C 252.736 135.887,252.036 135.569,251.673 135.569 C 251.250 135.569,251.015 135.317,251.015 134.863 C 251.015 134.475,250.795 134.157,250.527 134.157 C 250.258 134.157,249.955 133.839,249.854 133.451 C 249.743 133.029,249.372 132.745,248.930 132.745 C 248.518 132.745,248.191 132.517,248.191 132.231 C 248.191 131.927,247.701 131.626,246.987 131.492 C 246.221 131.348,245.720 131.022,245.608 130.593 C 245.492 130.147,245.120 129.921,244.506 129.921 C 243.996 129.921,243.487 129.682,243.376 129.391 C 243.251 129.067,242.716 128.861,241.995 128.861 C 241.348 128.861,240.721 128.704,240.603 128.512 C 240.479 128.312,240.621 128.253,240.935 128.374 C 241.236 128.489,241.483 128.425,241.483 128.231 C 241.483 127.743,240.596 127.449,239.126 127.449 C 238.183 127.449,237.842 127.280,237.702 126.743 C 237.564 126.219,237.220 126.037,236.364 126.037 C 235.507 126.037,235.163 125.855,235.026 125.331 C 234.884 124.790,234.544 124.625,233.572 124.625 C 232.774 124.625,232.042 124.363,231.598 123.919 C 231.017 123.338,230.421 123.213,228.244 123.213 C 226.543 123.213,225.596 123.073,225.596 122.822 C 225.596 122.607,225.842 122.526,226.144 122.641 C 226.445 122.757,226.601 122.705,226.490 122.525 C 226.379 122.345,226.013 122.185,225.677 122.169 C 225.341 122.152,223.160 122.047,220.830 121.934 C 217.816 121.789,216.422 121.578,216.002 121.205 C 215.489 120.750,214.712 120.736,210.133 121.100 C 206.688 121.375,204.626 121.402,204.193 121.179 C 203.268 120.702,180.596 120.914,178.996 121.414 C 177.584 121.857,169.948 121.914,171.050 121.474 C 171.439 121.319,173.138 121.221,174.826 121.255 C 176.515 121.290,177.825 121.202,177.737 121.061 C 177.521 120.711,155.272 121.001,152.973 121.384 C 151.544 121.622,151.096 121.585,150.954 121.216 C 150.708 120.573,149.365 120.613,149.113 121.271 M162.930 121.447 C 163.428 121.661,163.012 121.751,161.518 121.751 C 160.025 121.751,159.608 121.661,160.106 121.447 C 160.494 121.281,161.130 121.144,161.518 121.144 C 161.906 121.144,162.542 121.281,162.930 121.447 M166.284 121.665 C 166.284 121.740,165.688 121.789,164.960 121.776 C 163.952 121.757,163.803 121.686,164.337 121.477 C 164.983 121.225,166.284 121.351,166.284 121.665 M185.878 121.447 C 186.350 121.650,185.647 121.751,183.760 121.751 C 181.873 121.751,181.170 121.650,181.642 121.447 C 182.030 121.281,182.983 121.144,183.760 121.144 C 184.537 121.144,185.490 121.281,185.878 121.447 M193.116 121.665 C 193.116 121.740,192.520 121.789,191.792 121.776 C 190.783 121.757,190.635 121.686,191.168 121.477 C 191.814 121.225,193.116 121.351,193.116 121.665 M200.706 121.447 C 201.204 121.661,200.787 121.751,199.294 121.751 C 197.800 121.751,197.384 121.661,197.882 121.447 C 198.270 121.281,198.906 121.144,199.294 121.144 C 199.682 121.144,200.318 121.281,200.706 121.447 M214.978 121.423 C 215.315 121.637,214.907 121.738,213.742 121.731 C 212.496 121.723,212.204 121.638,212.710 121.432 C 213.661 121.044,214.374 121.041,214.978 121.423 M275.728 134.472 C 275.728 134.646,275.966 134.879,276.258 134.991 C 276.580 135.115,276.787 134.991,276.787 134.676 C 276.787 134.390,276.549 134.157,276.258 134.157 C 275.966 134.157,275.728 134.299,275.728 134.472 M339.982 137.620 C 339.982 137.810,340.234 138.062,340.541 138.180 C 340.885 138.312,341.047 138.233,340.961 137.975 C 340.785 137.447,339.982 137.156,339.982 137.620 M291.829 196.851 C 291.712 197.159,291.625 197.754,291.638 198.175 C 291.659 198.894,291.681 198.888,292.009 198.067 C 292.294 197.353,292.418 197.288,292.687 197.714 C 292.938 198.110,293.018 198.003,293.022 197.264 C 293.028 196.200,292.191 195.910,291.829 196.851 M344.219 218.225 C 344.219 218.851,344.306 218.902,344.748 218.535 C 345.040 218.293,345.278 217.956,345.278 217.786 C 345.278 217.615,345.040 217.476,344.748 217.476 C 344.444 217.476,344.219 217.794,344.219 218.225 M255.840 254.428 C 255.434 254.834,255.583 255.252,256.134 255.252 C 256.425 255.252,256.664 255.013,256.664 254.722 C 256.664 254.171,256.246 254.022,255.840 254.428 M239.365 262.871 C 239.365 263.179,239.553 263.368,239.784 263.291 C 240.438 263.072,240.547 262.312,239.924 262.312 C 239.616 262.312,239.365 262.564,239.365 262.871 M235.746 263.753 C 235.065 264.150,234.914 264.784,235.502 264.784 C 235.707 264.784,235.778 264.625,235.658 264.431 C 235.538 264.237,235.687 264.078,235.990 264.078 C 236.292 264.078,236.540 263.919,236.540 263.725 C 236.540 263.299,236.525 263.299,235.746 263.753 M230.068 265.372 C 229.620 265.820,229.835 266.196,230.538 266.196 C 230.931 266.196,231.244 265.961,231.244 265.666 C 231.244 265.129,230.498 264.942,230.068 265.372 M221.948 266.431 C 221.414 266.965,221.739 267.653,222.475 267.544 C 223.405 267.407,223.696 266.196,222.799 266.196 C 222.460 266.196,222.077 266.302,221.948 266.431 M315.848 274.846 C 315.736 275.137,315.779 275.375,315.943 275.375 C 316.107 275.375,316.440 275.137,316.681 274.846 C 317.039 274.414,317.021 274.316,316.586 274.316 C 316.292 274.316,315.959 274.554,315.848 274.846 M261.859 313.851 C 261.703 314.446,261.776 314.497,262.347 314.192 C 263.129 313.773,263.238 313.151,262.530 313.151 C 262.262 313.151,261.959 313.466,261.859 313.851 " stroke="none" fill="#6b38a2" fill-rule="evenodd"></path><path id="path1" d="M79.602 48.494 C 79.219 48.757,78.310 49.082,77.582 49.216 C 76.770 49.364,76.258 49.657,76.258 49.972 C 76.258 50.254,75.940 50.485,75.552 50.485 C 75.081 50.485,74.846 50.721,74.846 51.192 C 74.846 51.662,74.610 51.898,74.139 51.898 C 73.669 51.898,73.433 52.133,73.433 52.604 C 73.433 53.066,73.198 53.310,72.752 53.310 C 72.316 53.310,72.027 53.597,71.949 54.104 C 71.882 54.541,71.635 54.859,71.399 54.812 C 71.147 54.760,70.877 55.306,70.744 56.135 C 70.614 56.948,70.323 57.546,70.056 57.546 C 69.402 57.546,69.461 47.728,69.303 182.348 C 69.156 306.868,69.195 313.151,70.113 313.151 C 70.402 313.151,70.609 313.507,70.609 314.005 C 70.609 315.223,70.960 315.975,71.529 315.975 C 71.800 315.975,72.021 316.293,72.021 316.681 C 72.021 317.152,72.257 317.387,72.727 317.387 C 73.198 317.387,73.433 317.623,73.433 318.094 C 73.433 318.564,73.669 318.800,74.139 318.800 C 74.532 318.800,74.846 319.035,74.846 319.329 C 74.846 319.623,75.159 319.859,75.552 319.859 C 76.022 319.859,76.258 320.094,76.258 320.565 C 76.258 321.132,76.493 321.271,77.452 321.271 C 78.339 321.271,78.693 321.448,78.826 321.958 C 78.973 322.519,79.372 322.665,80.990 322.753 C 82.081 322.812,82.958 323.001,82.939 323.173 C 82.847 324.017,88.494 324.090,153.113 324.082 C 221.720 324.075,222.379 324.068,222.598 323.379 C 222.802 322.738,223.177 322.679,227.385 322.630 C 233.155 322.563,232.753 322.614,233.295 321.889 C 233.674 321.380,234.319 321.271,236.946 321.271 C 239.840 321.271,240.154 321.205,240.321 320.565 C 240.485 319.939,240.803 319.859,243.113 319.859 C 245.194 319.859,245.719 319.752,245.719 319.329 C 245.719 318.939,246.126 318.800,247.264 318.800 C 249.511 318.800,251.015 318.428,251.015 317.873 C 251.015 317.526,251.515 317.387,252.760 317.387 C 254.087 317.387,254.620 317.223,254.985 316.702 C 255.327 316.215,255.969 315.985,257.212 315.907 C 258.479 315.827,258.959 315.652,258.959 315.268 C 258.959 314.909,259.396 314.704,260.322 314.628 C 261.316 314.546,261.733 314.331,261.863 313.833 C 262.023 313.223,263.937 312.850,265.578 313.109 C 265.724 313.132,265.803 312.967,265.755 312.742 C 265.706 312.517,266.350 312.159,267.186 311.947 C 268.021 311.736,268.693 311.403,268.679 311.209 C 268.664 311.015,269.204 310.807,269.878 310.748 C 270.722 310.673,271.172 310.426,271.322 309.953 C 271.481 309.450,271.861 309.267,272.751 309.267 C 273.728 309.267,273.963 309.130,273.963 308.561 C 273.963 307.986,274.198 307.855,275.232 307.855 C 276.203 307.855,276.544 307.690,276.685 307.149 C 276.824 306.619,277.167 306.443,278.064 306.443 C 279.023 306.443,279.259 306.304,279.259 305.737 C 279.259 305.215,279.494 305.031,280.162 305.031 C 280.659 305.031,280.978 304.889,280.870 304.715 C 280.644 304.349,281.470 303.972,282.498 303.972 C 282.911 303.972,283.285 303.677,283.393 303.266 C 283.523 302.768,283.874 302.560,284.583 302.560 C 285.227 302.560,285.724 302.306,285.966 301.853 C 286.174 301.465,286.577 301.147,286.861 301.147 C 287.146 301.147,287.379 300.830,287.379 300.441 C 287.379 299.853,287.614 299.735,288.791 299.735 C 289.968 299.735,290.203 299.618,290.203 299.029 C 290.203 298.558,290.438 298.323,290.909 298.323 C 291.297 298.323,291.615 298.120,291.615 297.871 C 291.615 297.622,292.052 297.222,292.586 296.981 C 294.591 296.078,295.499 295.445,295.499 294.950 C 295.499 294.669,295.816 294.440,296.205 294.440 C 296.675 294.440,296.911 294.204,296.911 293.733 C 296.911 293.263,297.146 293.027,297.617 293.027 C 298.080 293.027,298.323 292.792,298.323 292.344 C 298.323 291.830,298.609 291.632,299.470 291.549 C 300.206 291.478,300.618 291.248,300.618 290.909 C 300.618 290.618,300.975 290.329,301.412 290.267 C 301.849 290.205,302.207 289.945,302.207 289.690 C 302.207 289.435,302.524 289.143,302.913 289.042 C 303.301 288.940,303.619 288.622,303.619 288.335 C 303.619 288.049,303.936 287.731,304.325 287.629 C 304.713 287.528,305.031 287.192,305.031 286.882 C 305.031 286.555,305.326 286.320,305.737 286.320 C 306.193 286.320,306.443 286.084,306.443 285.655 C 306.443 285.287,306.758 284.907,307.149 284.805 C 307.538 284.703,307.855 284.367,307.855 284.058 C 307.855 283.748,308.094 283.495,308.385 283.495 C 308.676 283.495,308.914 283.275,308.914 283.007 C 308.914 282.738,309.232 282.435,309.620 282.334 C 310.009 282.232,310.327 281.914,310.327 281.628 C 310.327 281.341,310.644 281.023,311.033 280.922 C 311.421 280.820,311.739 280.502,311.739 280.215 C 311.739 279.929,312.056 279.611,312.445 279.509 C 312.833 279.408,313.151 279.072,313.151 278.762 C 313.151 278.453,313.389 278.199,313.680 278.199 C 313.972 278.199,314.210 278.052,314.210 277.872 C 314.210 277.691,314.488 277.266,314.828 276.926 C 315.168 276.586,315.454 276.217,315.463 276.106 C 315.534 275.283,316.110 274.316,316.529 274.316 C 316.807 274.316,317.034 273.998,317.034 273.610 C 317.034 273.139,317.270 272.904,317.741 272.904 C 318.211 272.904,318.447 272.668,318.447 272.198 C 318.447 271.727,318.682 271.492,319.153 271.492 C 319.623 271.492,319.859 271.256,319.859 270.786 C 319.859 270.381,320.094 270.079,320.409 270.079 C 320.712 270.079,320.861 269.921,320.741 269.726 C 320.621 269.532,320.691 269.373,320.897 269.373 C 321.103 269.373,321.271 268.976,321.271 268.491 C 321.271 267.934,321.470 267.608,321.812 267.608 C 322.109 267.608,322.457 267.330,322.584 266.990 C 322.712 266.650,323.011 266.214,323.249 266.019 C 323.488 265.825,323.745 265.349,323.822 264.960 C 323.898 264.572,324.162 264.298,324.407 264.351 C 324.653 264.405,324.760 264.296,324.645 264.111 C 324.531 263.925,324.598 263.674,324.796 263.552 C 324.993 263.430,325.154 263.022,325.154 262.645 C 325.154 262.195,325.397 261.959,325.861 261.959 C 326.432 261.959,326.567 261.724,326.567 260.724 C 326.567 259.723,326.701 259.488,327.273 259.488 C 327.743 259.488,327.979 259.253,327.979 258.782 C 327.979 258.394,328.200 258.076,328.471 258.076 C 329.040 258.076,329.391 257.324,329.391 256.105 C 329.391 255.582,329.596 255.252,329.921 255.252 C 330.212 255.252,330.450 254.972,330.450 254.630 C 330.450 254.289,330.768 253.811,331.156 253.568 C 331.607 253.287,331.862 252.745,331.862 252.071 C 331.862 251.404,332.043 251.015,332.354 251.015 C 332.878 251.015,333.274 250.279,333.274 249.306 C 333.274 248.980,333.592 248.515,333.981 248.273 C 334.380 248.023,334.687 247.449,334.687 246.952 C 334.687 246.468,335.004 245.755,335.393 245.366 C 335.781 244.978,336.101 244.223,336.104 243.689 C 336.107 243.155,336.281 242.480,336.491 242.189 C 336.809 241.746,336.838 241.764,336.666 242.295 C 336.549 242.658,336.606 242.841,336.799 242.722 C 336.985 242.607,337.242 241.725,337.370 240.762 C 337.520 239.627,337.772 239.011,338.086 239.011 C 338.413 239.011,338.570 238.567,338.570 237.643 C 338.570 236.783,338.792 236.093,339.168 235.789 C 339.676 235.376,339.721 235.378,339.466 235.800 C 339.263 236.137,339.298 236.215,339.575 236.044 C 339.802 235.904,339.982 234.945,339.982 233.883 C 339.982 232.246,340.067 232.005,340.570 232.198 C 340.965 232.350,341.074 232.288,340.902 232.011 C 340.762 231.783,340.815 231.598,341.021 231.598 C 341.226 231.598,341.395 230.962,341.395 230.185 C 341.395 229.244,341.630 228.538,342.101 228.067 C 342.592 227.575,342.807 226.890,342.807 225.810 C 342.807 224.785,342.979 224.193,343.316 224.064 C 343.596 223.956,343.842 223.582,343.864 223.232 C 344.158 218.438,344.310 217.476,344.777 217.476 C 345.167 217.476,345.278 216.857,345.278 214.672 C 345.278 213.130,345.437 211.770,345.631 211.650 C 345.825 211.530,345.984 211.610,345.984 211.827 C 345.984 212.044,346.126 212.134,346.299 212.027 C 346.473 211.920,346.639 209.811,346.669 207.341 C 346.724 202.788,346.779 202.471,347.514 202.471 C 347.821 202.471,347.945 198.136,348.003 185.437 C 348.055 173.966,347.961 168.402,347.717 168.402 C 347.518 168.402,347.452 168.245,347.570 168.053 C 347.694 167.853,347.552 167.794,347.238 167.915 C 346.763 168.097,346.684 167.558,346.646 163.851 C 346.592 158.583,346.603 158.694,346.102 158.694 C 345.388 158.694,345.319 158.398,345.251 155.080 C 345.208 152.913,345.055 151.864,344.791 151.913 C 344.552 151.957,344.295 151.076,344.142 149.691 C 343.801 146.593,343.785 146.522,343.491 146.704 C 343.093 146.949,342.807 145.906,342.807 144.214 C 342.807 142.988,342.664 142.633,342.101 142.454 C 341.510 142.266,341.395 141.919,341.395 140.335 C 341.395 138.751,341.279 138.405,340.688 138.217 C 340.051 138.015,339.681 136.275,339.951 134.745 C 339.979 134.582,339.680 134.365,339.286 134.262 C 338.708 134.111,338.570 133.785,338.570 132.570 C 338.570 131.701,338.358 130.890,338.068 130.650 C 337.792 130.420,337.460 129.607,337.331 128.841 C 337.187 127.989,336.903 127.449,336.597 127.449 C 336.261 127.449,336.099 127.038,336.099 126.181 C 336.099 125.209,335.934 124.869,335.393 124.727 C 334.862 124.588,334.687 124.246,334.687 123.348 C 334.687 122.389,334.548 122.154,333.981 122.154 C 333.392 122.154,333.274 121.918,333.274 120.741 C 333.274 119.565,333.157 119.329,332.568 119.329 C 331.993 119.329,331.862 119.094,331.862 118.061 C 331.862 117.089,331.697 116.749,331.156 116.607 C 330.768 116.506,330.430 116.123,330.406 115.758 C 330.331 114.622,330.283 114.454,329.952 114.151 C 329.762 113.977,329.748 114.059,329.919 114.353 C 330.112 114.686,330.073 114.766,329.799 114.597 C 329.574 114.458,329.391 114.022,329.391 113.627 C 329.391 113.205,329.099 112.832,328.685 112.724 C 328.237 112.606,327.979 112.242,327.979 111.726 C 327.979 110.547,327.621 109.797,327.058 109.797 C 326.788 109.797,326.567 109.479,326.567 109.091 C 326.567 108.620,326.331 108.385,325.861 108.385 C 325.289 108.385,325.154 108.149,325.154 107.149 C 325.154 106.149,325.020 105.914,324.448 105.914 C 323.978 105.914,323.742 105.678,323.742 105.207 C 323.742 104.819,323.522 104.501,323.252 104.501 C 322.972 104.501,322.663 103.975,322.531 103.271 C 322.404 102.594,322.112 102.078,321.882 102.123 C 321.652 102.169,321.411 101.857,321.345 101.429 C 321.280 101.001,320.919 100.554,320.543 100.434 C 320.166 100.315,319.859 99.990,319.859 99.711 C 319.859 99.433,319.541 99.206,319.153 99.206 C 318.682 99.206,318.447 98.970,318.447 98.500 C 318.447 98.029,318.211 97.793,317.741 97.793 C 317.172 97.793,317.034 97.558,317.034 96.582 C 317.034 95.680,316.854 95.312,316.328 95.146 C 315.940 95.022,315.622 94.711,315.622 94.454 C 315.622 94.196,315.384 93.894,315.093 93.782 C 314.801 93.671,314.563 93.336,314.563 93.038 C 314.563 92.733,314.256 92.498,313.857 92.498 C 313.386 92.498,313.151 92.262,313.151 91.792 C 313.151 91.321,312.916 91.086,312.445 91.086 C 311.974 91.086,311.739 90.850,311.739 90.380 C 311.739 89.909,311.503 89.673,311.033 89.673 C 310.562 89.673,310.327 89.438,310.327 88.967 C 310.327 88.497,310.091 88.261,309.620 88.261 C 309.150 88.261,308.914 88.026,308.914 87.555 C 308.914 87.163,308.679 86.849,308.385 86.849 C 308.094 86.849,307.855 86.596,307.855 86.286 C 307.855 85.977,307.538 85.641,307.149 85.539 C 306.761 85.438,306.443 85.135,306.443 84.866 C 306.443 84.598,306.125 84.378,305.737 84.378 C 305.266 84.378,305.031 84.142,305.031 83.672 C 305.031 83.201,304.796 82.966,304.325 82.966 C 303.854 82.966,303.619 82.730,303.619 82.259 C 303.619 81.789,303.383 81.553,302.913 81.553 C 302.442 81.553,302.207 81.318,302.207 80.847 C 302.207 80.377,301.971 80.141,301.500 80.141 C 301.112 80.141,300.794 79.920,300.794 79.649 C 300.794 79.110,300.053 78.729,299.000 78.729 C 298.628 78.729,298.323 78.509,298.323 78.241 C 298.323 77.972,298.005 77.669,297.617 77.568 C 297.229 77.466,296.911 77.130,296.911 76.820 C 296.911 76.493,296.615 76.258,296.205 76.258 C 295.734 76.258,295.499 76.022,295.499 75.552 C 295.499 75.026,295.263 74.846,294.578 74.846 C 293.892 74.846,293.711 74.706,293.868 74.298 C 293.989 73.983,293.930 73.842,293.729 73.965 C 293.537 74.084,293.380 74.013,293.380 73.807 C 293.380 73.602,293.261 73.452,293.116 73.475 C 292.244 73.613,291.615 73.360,291.615 72.871 C 291.615 72.561,291.297 72.225,290.909 72.123 C 290.521 72.022,290.203 71.721,290.203 71.455 C 290.203 71.163,289.642 70.881,288.791 70.745 C 287.939 70.608,287.379 70.326,287.379 70.034 C 287.379 69.768,287.151 69.550,286.873 69.550 C 286.595 69.550,286.266 69.232,286.143 68.844 C 285.976 68.318,285.609 68.138,284.707 68.138 C 283.731 68.138,283.495 68.001,283.495 67.432 C 283.495 66.906,283.260 66.726,282.575 66.726 C 281.888 66.726,281.708 66.586,281.865 66.178 C 281.985 65.863,281.926 65.722,281.726 65.845 C 281.534 65.964,281.377 65.893,281.377 65.687 C 281.377 65.482,280.919 65.313,280.359 65.313 C 279.638 65.313,279.287 65.107,279.156 64.607 C 279.022 64.093,278.675 63.901,277.879 63.901 C 277.144 63.901,276.787 63.728,276.787 63.372 C 276.787 62.989,276.395 62.842,275.375 62.842 C 274.198 62.842,273.963 62.724,273.963 62.136 C 273.963 61.569,273.728 61.430,272.768 61.430 C 271.871 61.430,271.528 61.254,271.389 60.724 C 271.249 60.188,270.908 60.018,269.977 60.018 C 269.061 60.018,268.704 59.845,268.571 59.335 C 268.441 58.837,268.024 58.622,267.030 58.541 C 266.280 58.479,265.720 58.288,265.785 58.115 C 265.983 57.591,265.038 57.204,263.545 57.199 C 262.515 57.195,262.009 57.001,261.688 56.487 C 261.413 56.046,260.865 55.781,260.229 55.781 C 259.649 55.781,259.123 55.553,259.007 55.252 C 258.864 54.879,258.284 54.722,257.052 54.722 C 255.624 54.722,255.259 54.594,255.080 54.033 C 254.903 53.474,254.482 53.324,252.850 53.239 C 251.407 53.163,250.866 53.001,250.935 52.666 C 250.989 52.409,250.870 52.299,250.671 52.422 C 250.472 52.545,250.309 52.477,250.309 52.271 C 250.309 52.066,250.190 51.916,250.044 51.939 C 248.117 52.244,245.390 51.823,245.190 51.192 C 244.990 50.562,244.656 50.485,242.116 50.485 C 239.809 50.485,239.180 50.368,238.814 49.868 C 238.435 49.349,237.651 49.230,233.921 49.125 C 230.413 49.027,229.479 48.897,229.479 48.507 C 229.479 47.778,80.661 47.765,79.602 48.494 M219.506 103.530 C 219.457 103.773,219.616 103.932,219.859 103.883 C 220.102 103.835,220.300 103.954,220.300 104.148 C 220.300 104.365,222.013 104.501,224.734 104.501 C 228.187 104.501,229.109 104.599,228.903 104.943 C 228.749 105.199,228.915 105.162,229.301 104.854 C 229.901 104.376,229.943 104.382,229.740 104.924 C 229.555 105.419,229.803 105.558,231.175 105.725 C 232.087 105.837,233.262 106.067,233.787 106.237 C 234.434 106.446,234.794 106.415,234.907 106.141 C 234.998 105.919,235.085 106.015,235.100 106.355 C 235.123 106.863,235.464 106.973,237.029 106.973 C 238.632 106.973,238.958 107.083,239.114 107.679 C 239.260 108.237,239.595 108.385,240.720 108.385 C 241.861 108.385,242.188 108.533,242.380 109.138 C 242.568 109.729,242.685 109.786,242.928 109.402 C 243.151 109.050,243.239 109.037,243.243 109.356 C 243.246 109.621,243.725 109.797,244.442 109.797 C 245.340 109.797,245.683 109.973,245.822 110.503 C 245.962 111.038,246.303 111.209,247.234 111.209 C 248.164 111.209,248.506 111.380,248.646 111.915 C 248.787 112.456,249.128 112.621,250.099 112.621 C 250.992 112.621,251.368 112.778,251.368 113.151 C 251.368 113.521,251.741 113.680,252.604 113.680 C 253.604 113.680,253.839 113.815,253.839 114.387 C 253.839 114.857,254.075 115.093,254.545 115.093 C 255.178 115.093,255.417 115.459,255.293 116.240 C 255.270 116.386,255.371 116.486,255.516 116.463 C 256.947 116.237,258.076 116.567,258.076 117.211 C 258.076 117.599,258.309 117.917,258.593 117.917 C 258.877 117.917,259.279 118.233,259.486 118.620 C 259.693 119.006,259.977 119.305,260.116 119.284 C 261.134 119.131,261.903 119.427,262.062 120.035 C 262.163 120.424,262.500 120.741,262.809 120.741 C 263.118 120.741,263.372 120.980,263.372 121.271 C 263.372 121.565,263.685 121.801,264.078 121.801 C 264.548 121.801,264.784 122.036,264.784 122.507 C 264.784 122.977,265.019 123.213,265.490 123.213 C 265.961 123.213,266.196 123.448,266.196 123.919 C 266.196 124.307,266.348 124.625,266.533 124.625 C 267.266 124.625,268.709 126.444,268.334 126.896 C 267.826 127.508,268.257 127.830,269.249 127.581 C 269.863 127.427,270.079 127.521,270.079 127.941 C 270.079 128.253,270.199 128.490,270.344 128.467 C 271.125 128.343,271.492 128.582,271.492 129.214 C 271.492 129.685,271.727 129.921,272.198 129.921 C 272.668 129.921,272.904 130.156,272.904 130.627 C 272.904 131.015,273.124 131.333,273.392 131.333 C 273.661 131.333,273.964 131.650,274.065 132.039 C 274.167 132.427,274.503 132.745,274.812 132.745 C 275.140 132.745,275.375 133.040,275.375 133.451 C 275.375 133.922,275.610 134.157,276.081 134.157 C 276.635 134.157,276.787 134.392,276.787 135.249 C 276.787 136.045,276.979 136.392,277.493 136.526 C 277.884 136.628,278.199 137.008,278.199 137.376 C 278.199 137.805,278.449 138.041,278.906 138.041 C 279.574 138.041,279.815 138.708,279.638 140.071 C 279.606 140.313,279.809 140.512,280.087 140.512 C 280.366 140.512,280.694 140.909,280.816 141.395 C 280.938 141.880,281.273 142.277,281.560 142.277 C 282.040 142.277,282.244 142.883,282.115 143.927 C 282.087 144.155,282.386 144.444,282.780 144.569 C 283.219 144.709,283.512 145.127,283.539 145.655 C 283.621 147.239,283.670 147.396,284.084 147.396 C 284.710 147.396,284.878 147.683,284.971 148.915 C 285.034 149.732,285.232 150.044,285.689 150.044 C 286.189 150.044,286.320 150.336,286.320 151.456 C 286.320 152.471,286.467 152.868,286.845 152.868 C 287.186 152.868,287.451 153.371,287.600 154.304 C 287.726 155.094,288.046 155.957,288.310 156.221 C 288.575 156.485,288.791 157.339,288.791 158.118 C 288.791 158.897,288.952 159.634,289.150 159.756 C 289.347 159.878,289.416 160.127,289.304 160.309 C 289.191 160.491,289.347 160.736,289.651 160.852 C 290.054 161.007,290.203 161.562,290.203 162.909 C 290.203 163.924,290.322 164.873,290.468 165.019 C 290.613 165.165,290.740 165.469,290.749 165.696 C 290.757 165.922,290.956 166.068,291.190 166.019 C 291.490 165.957,291.615 166.667,291.615 168.426 C 291.615 169.798,291.780 171.228,291.981 171.603 C 292.254 172.113,292.231 172.287,291.892 172.291 C 291.564 172.295,291.581 172.387,291.951 172.621 C 292.233 172.800,292.591 172.867,292.746 172.771 C 292.901 172.676,293.025 178.366,293.022 185.416 C 293.019 193.431,292.894 198.041,292.689 197.717 C 292.142 196.852,291.615 198.847,291.615 201.788 C 291.615 203.871,291.507 204.413,291.092 204.413 C 290.481 204.413,290.244 205.270,290.118 207.944 C 290.068 209.011,289.874 209.834,289.687 209.771 C 289.224 209.615,288.846 210.682,288.816 212.231 C 288.802 212.938,288.588 213.595,288.339 213.690 C 288.091 213.785,287.849 214.318,287.801 214.875 C 287.754 215.432,287.651 216.205,287.574 216.593 C 287.496 216.981,287.421 217.418,287.406 217.564 C 287.391 217.710,287.150 217.829,286.870 217.829 C 286.538 217.829,286.324 218.287,286.253 219.153 C 286.179 220.045,285.971 220.477,285.613 220.477 C 285.260 220.477,285.025 220.947,284.907 221.889 C 284.791 222.820,284.553 223.301,284.209 223.301 C 283.887 223.301,283.657 223.691,283.609 224.314 C 283.566 224.872,283.205 225.556,282.807 225.835 C 282.356 226.151,282.083 226.734,282.083 227.381 C 282.083 228.079,281.905 228.420,281.542 228.420 C 281.245 228.420,280.897 228.698,280.770 229.038 C 280.642 229.378,280.318 229.821,280.050 230.022 C 279.781 230.224,279.592 230.542,279.629 230.728 C 279.808 231.641,279.545 232.277,278.906 232.480 C 278.517 232.603,278.199 232.926,278.199 233.198 C 278.199 233.469,277.882 233.861,277.493 234.069 C 277.031 234.316,276.787 234.808,276.787 235.493 C 276.787 236.305,276.629 236.540,276.081 236.540 C 275.610 236.540,275.375 236.776,275.375 237.246 C 275.375 237.657,275.140 237.952,274.812 237.952 C 274.503 237.952,274.167 238.270,274.065 238.658 C 273.964 239.047,273.661 239.365,273.392 239.365 C 273.124 239.365,272.904 239.618,272.904 239.927 C 272.904 240.237,272.586 240.573,272.198 240.674 C 271.809 240.776,271.492 241.000,271.492 241.172 C 271.492 241.344,270.902 242.040,270.182 242.719 C 269.462 243.398,268.992 243.954,269.137 243.954 C 269.282 243.954,269.196 244.176,268.946 244.447 C 268.696 244.717,268.383 244.874,268.251 244.795 C 268.120 244.715,267.910 244.970,267.786 245.361 C 267.581 246.007,267.190 246.229,266.461 246.114 C 266.315 246.091,266.236 246.265,266.284 246.501 C 266.333 246.736,266.015 247.092,265.578 247.291 C 265.141 247.489,264.784 247.853,264.784 248.098 C 264.784 248.343,264.466 248.544,264.078 248.544 C 263.607 248.544,263.372 248.779,263.372 249.250 C 263.372 249.721,263.136 249.956,262.665 249.956 C 262.195 249.956,261.959 250.191,261.959 250.662 C 261.959 251.304,261.045 251.614,259.753 251.410 C 259.607 251.387,259.507 251.487,259.530 251.633 C 259.653 252.413,259.414 252.780,258.782 252.780 C 258.371 252.780,258.076 253.016,258.076 253.343 C 258.076 253.652,257.758 253.989,257.370 254.090 C 256.981 254.192,256.664 254.495,256.664 254.763 C 256.664 255.088,256.240 255.252,255.395 255.252 C 254.423 255.252,254.083 255.417,253.942 255.958 C 253.803 256.488,253.460 256.664,252.563 256.664 C 251.603 256.664,251.368 256.803,251.368 257.370 C 251.368 257.851,251.115 258.093,250.574 258.130 C 250.137 258.159,249.541 258.203,249.250 258.226 C 248.954 258.250,248.766 258.539,248.824 258.879 C 248.916 259.418,247.668 259.767,246.962 259.400 C 246.868 259.351,246.542 259.669,246.236 260.106 C 245.842 260.668,245.324 260.900,244.464 260.900 C 243.618 260.900,243.248 261.062,243.248 261.430 C 243.248 261.799,242.877 261.959,242.025 261.959 C 241.163 261.959,240.690 262.168,240.424 262.665 C 240.124 263.226,239.684 263.372,238.293 263.372 C 237.329 263.372,236.540 263.530,236.540 263.725 C 236.540 263.919,236.292 264.078,235.990 264.078 C 235.687 264.078,235.538 264.237,235.658 264.431 C 235.795 264.653,234.966 264.784,233.417 264.784 C 231.145 264.784,230.971 264.837,231.139 265.478 C 231.311 266.134,231.100 266.178,227.311 266.272 C 224.026 266.354,223.301 266.468,223.301 266.902 C 223.301 267.370,217.681 267.442,175.199 267.521 C 127.273 267.610,127.096 267.608,127.096 266.903 C 127.096 266.514,126.977 266.215,126.831 266.238 C 125.539 266.442,124.625 266.132,124.625 265.490 C 124.625 265.019,124.390 264.784,123.919 264.784 C 122.802 264.784,122.802 106.103,123.919 105.811 C 124.307 105.710,124.625 105.373,124.625 105.064 C 124.625 104.745,124.918 104.501,125.302 104.501 C 126.354 104.501,127.096 104.121,127.096 103.581 C 127.096 103.163,134.049 103.089,173.345 103.089 C 210.156 103.089,219.576 103.179,219.506 103.530 M150.967 121.249 C 151.074 121.528,151.382 121.671,151.652 121.568 C 151.921 121.465,153.934 121.260,156.124 121.113 L 160.106 120.845 155.439 120.793 C 151.513 120.750,150.803 120.822,150.967 121.249 M167.079 120.999 C 167.807 121.075,168.998 121.075,169.726 120.999 C 170.455 120.922,169.859 120.860,168.402 120.860 C 166.946 120.860,166.350 120.922,167.079 120.999 M177.718 121.030 C 177.816 121.188,176.515 121.290,174.826 121.255 C 173.138 121.221,171.439 121.319,171.050 121.474 C 169.833 121.960,177.619 121.787,179.876 121.278 L 181.995 120.801 179.767 120.771 C 178.542 120.755,177.620 120.871,177.718 121.030 M187.202 120.999 C 187.930 121.075,189.122 121.075,189.850 120.999 C 190.578 120.922,189.982 120.860,188.526 120.860 C 187.070 120.860,186.474 120.922,187.202 120.999 M193.557 120.994 C 194.091 121.075,194.965 121.075,195.499 120.994 C 196.033 120.913,195.596 120.847,194.528 120.847 C 193.460 120.847,193.023 120.913,193.557 120.994 M204.259 121.143 C 204.737 121.375,206.315 121.384,208.848 121.169 L 212.710 120.841 208.120 120.815 C 204.821 120.796,203.735 120.889,204.259 121.143 M160.106 121.447 C 159.608 121.661,160.025 121.751,161.518 121.751 C 163.012 121.751,163.428 121.661,162.930 121.447 C 162.542 121.281,161.906 121.144,161.518 121.144 C 161.130 121.144,160.494 121.281,160.106 121.447 M164.337 121.477 C 163.803 121.686,163.952 121.757,164.960 121.776 C 165.688 121.789,166.284 121.740,166.284 121.665 C 166.284 121.351,164.983 121.225,164.337 121.477 M181.642 121.447 C 181.170 121.650,181.873 121.751,183.760 121.751 C 185.647 121.751,186.350 121.650,185.878 121.447 C 185.490 121.281,184.537 121.144,183.760 121.144 C 182.983 121.144,182.030 121.281,181.642 121.447 M191.168 121.477 C 190.635 121.686,190.783 121.757,191.792 121.776 C 192.520 121.789,193.116 121.740,193.116 121.665 C 193.116 121.351,191.814 121.225,191.168 121.477 M197.882 121.447 C 197.384 121.661,197.800 121.751,199.294 121.751 C 200.787 121.751,201.204 121.661,200.706 121.447 C 200.318 121.281,199.682 121.144,199.294 121.144 C 198.906 121.144,198.270 121.281,197.882 121.447 M212.710 121.432 C 212.204 121.638,212.496 121.723,213.742 121.731 C 214.907 121.738,215.315 121.637,214.978 121.423 C 214.374 121.041,213.661 121.044,212.710 121.432 M225.497 122.759 C 225.593 123.008,225.866 123.213,226.104 123.213 C 226.342 123.213,226.537 123.008,226.537 122.759 C 226.537 122.509,226.264 122.305,225.930 122.305 C 225.580 122.305,225.397 122.497,225.497 122.759 M237.599 126.578 C 237.599 127.147,238.539 127.686,238.900 127.325 C 239.152 127.073,238.354 126.037,237.909 126.037 C 237.739 126.037,237.599 126.280,237.599 126.578 M268.768 157.936 C 268.955 158.499,269.609 158.592,269.609 158.056 C 269.609 157.792,269.392 157.576,269.128 157.576 C 268.864 157.576,268.702 157.738,268.768 157.936 M271.492 164.535 C 271.492 164.673,271.696 164.955,271.946 165.162 C 272.286 165.445,272.399 165.383,272.399 164.911 C 272.399 164.566,272.195 164.284,271.946 164.284 C 271.696 164.284,271.492 164.397,271.492 164.535 M273.963 194.748 C 273.963 195.238,274.052 195.252,274.581 194.847 C 274.921 194.587,275.265 194.330,275.346 194.275 C 275.427 194.220,275.149 194.175,274.728 194.175 C 274.258 194.175,273.963 194.395,273.963 194.748 M270.132 209.691 C 270.210 209.924,270.389 210.103,270.530 210.088 C 270.952 210.045,270.870 209.560,270.415 209.409 C 270.182 209.331,270.055 209.458,270.132 209.691 M249.953 237.066 C 250.193 237.355,250.532 237.503,250.708 237.394 C 251.158 237.116,250.727 236.540,250.068 236.540 C 249.620 236.540,249.598 236.638,249.953 237.066 M239.064 243.583 C 239.142 243.816,239.321 243.995,239.462 243.981 C 239.884 243.937,239.802 243.453,239.347 243.301 C 239.114 243.223,238.987 243.350,239.064 243.583 M147.791 249.092 C 147.671 249.406,147.730 249.547,147.930 249.424 C 148.122 249.305,148.279 249.408,148.279 249.653 C 148.279 249.979,148.383 249.993,148.672 249.704 C 149.073 249.303,148.827 248.544,148.296 248.544 C 148.134 248.544,147.907 248.790,147.791 249.092 M220.551 249.250 C 220.652 249.638,220.778 249.956,220.830 249.956 C 220.881 249.956,221.007 249.638,221.108 249.250 C 221.224 248.808,221.119 248.544,220.830 248.544 C 220.540 248.544,220.435 248.808,220.551 249.250 " stroke="none" fill="#b4291b" fill-rule="evenodd"></path></g></svg>